<svg xmlns="http://www.w3.org/2000/svg" viewBox="0 0 300.99 325.77"><defs><style>.cls-1{fill:none;stroke:#1d1d1b;stroke-miterlimit:10;}</style></defs><title>Asset 19</title><g id="Layer_2" data-name="Layer 2"><g id="Layer_1-2" data-name="Layer 1"><path class="cls-1" d="M82.25,71.25a40.28,40.28,0,0,0-4.79,4.68c-1.59,2-1.59,3-1.59,6.09s0,3.25.91,5.49-.68,5.07-1.14,12.18a56,56,0,0,0,.88,11.76c.59,3.82,1.29,7.66,1.63,11.2.68,7.32.45,7.32,1.14,11.38s3.19,8.94,3.41,13.61.23,12.39-.91,16.25-1.59,8.94-3.42,15-5,14.22-5.92,20.52a21,21,0,0,0,1.4,11.11,39.27,39.27,0,0,0,9.79,8c5.72,3.15,14.69,8.24,21.77,10.42s9.94,3.16,18.3,4.13a160.39,160.39,0,0,0,23.59,1.45c7.62-.24,23.67-1.7,26.66-1.94s18.23-5.09,21.22-6.06,6.8-1.65,10.89-4,10.88-5,14.41-7.9a35.67,35.67,0,0,1,6-4.13s.54-11.64,0-14.79-4.08-10.67-4.9-12.61a61,61,0,0,1-2.45-10.43c-.27-2.42-3-13.09-3-17.46s-.27-5.09,1.36-9.46,1.63-4.36,3.81-10.91,2.45-8.49,3.26-15,2.15-4.37,2.15-4.37a61.51,61.51,0,0,1,1.93,8.25c.82,4.85,3.27,13.82,3.27,13.82s4.08,9.7,4.62,10.91,4.9,9.46,5.17,11.4.73,8.72.73,11.67a53.63,53.63,0,0,0,1.1,10.11c.55,2.06,1.76,11.68,2.53,14s8.34,22.06,9.41,23.32,9.25,18.71,9.6,20.93,3.56,6.34,3.2,11.73-1,13.1-1,13.1-1.27,1-2.17,5.23c0,0-.38,5.49-.38,7.89s.9,5,.18,8,.36,2.56-1.07,4.81-2,1.76-2.34,5-1.26,2.24-.54,5.45.54,5,1.44,5.61a4.63,4.63,0,0,0,3.59.81,13.72,13.72,0,0,0,3.78-1.93,4.7,4.7,0,0,0,2-3.53c.36-2.08-.54-5,0-6.09s1.08-2.73,2-5.13.36-3.21,2-4.65,2-1.44,3.41-1.6a4,4,0,0,1,3.6.8c1.8,1.12,1.8.64,3.06,2.56s2.52,0,2.52,3.53.54,1.44,0,6.57.72,4.17-.9,8.5c-1.44,3.85-2.34,5.17-3,8-.08.36-.16.73-.24,1.14a24.84,24.84,0,0,0-.75,3.75,20,20,0,0,1-.15,2.53s0,2.2.37,2.53a10.06,10.06,0,0,0,2.4.71,11,11,0,0,0,2-1.3c.29-.39,1-1.62,1-1.62l.57-1.15c.54-1.92.54-3,1.44-4.32s3.59-6.9,3.59-6.9l3.24-5.13s2.88-8.34,2.7-11.87,0-8.49,0-8.49-7.57-18-8.64-19.89-4-7.85-4-7.85-1.8-38.33-2.52-42.33-4-26.3-4.5-29-1.26-20.36-1.8-22.44S272.6,149.3,272.6,148s.54-3.85-2.34-14.91-5.58-21.16-5.58-21.16S254.79,89,254.25,88.53s-1.62-16.2-3.78-20-3.77-10.58-6.83-13.79-9.35-9.3-12-9.62-6.3-3.53-10.79-4.17-9.72-3.2-13-4-6.83-3.68-10.07-4.81-3.42-.8-10.43-5.93-5.94-5-7.74-6.89-2.15-1.93-2.33-2.57a41.35,41.35,0,0,1,0-6.73c.18-1.77.53-5,.71-5.61a19.5,19.5,0,0,1,.9-3.53c.72-1.93-3.77,5.45-6.29,7.21s-5.58,4.65-6.84,5-5.39,2.09-6.47,2.41-8.28.16-9.9.16-10.07.48-13.49-.64a23.38,23.38,0,0,1-7.73-4.17,24.56,24.56,0,0,1-5.44-6.46c-.79-1.76.86,4.86,1,6.78s0,5.13,0,5.13v4.5s-6.9,6.16-9.61,7.48-12.33,6.15-15.78,7.47-13.31,4-17.5,5.49-8.88,3.08-10.6,4.18-7.08,4.87-8.76,7.24-6.59,10.38-7,11.25S50.52,73.2,50.24,74.7s-1.68,6.5-1.54,9.12.54,4.38,0,5.38-5.32,10.37-5.32,10.37-7.71,21.5-8.27,23.63S30.61,139,30.47,139.7a86.61,86.61,0,0,1-3.23,12c-1.54,3.75-3.36,7.75-3.64,9s-1.27,10.62-1.41,13.75,0,8.37-1.12,12.25-3.36,21.12-3.36,21.62c0,0-1.12,7.94-1.38,10.65s-1.39,17.28-1.39,17.28l-1.77,18.18s-.29.79-.58,1.54-1.12,2-2.24,4.17-6.18,10.77-6.18,10.77S.71,278.58.71,279.33s-.47,11.85,0,17.11,4,10.42,5.71,13.93,2.62,5.51,3,7.84,3.09,5.17,3.09,5.17,1-.58,2.15-1.08.75-1.67,1.22-2.59-.19-1.92-.37-4.5-.47-1.75-1-3.92a32.06,32.06,0,0,0-2-5s.75-7.09.19-9.51.28-4.09.48-6.84,0-3.76,1.11-5.93a16.9,16.9,0,0,1,3.09-4.17c.84-.92.56-.83,1.59-.33s2.34,2.75,3.09,3.59,1.78,6.34,2.53,8.26a20.4,20.4,0,0,1,1.21,5.5c.28,2.26,1.31,2.26,1.5,4S30,304.61,30,304.61c.62.77,2.71-.33,4.8-.55s1.73-3.18,2.22-4.72,0-4.16-1-6.58A30.2,30.2,0,0,0,34.16,289a10.1,10.1,0,0,1-.74-6.36,25,25,0,0,0,.37-3.73c.12-1.64-.49-6.91-.49-7.79s-.13-8.44-.93-10,.43-5.59.19-8.23a35,35,0,0,1,0-7.24c.24-2.19,4.06-9.43,4.92-11.95s4.31-8.23,5.05-9.66,5-10.2,6.39-12.94,7.76-19.85,8.74-24.35a89.28,89.28,0,0,0,1.57-13.15c.23-3.66.68-14.23,1.6-15S64.7,148.45,66.52,145s5.7-14.83,6.84-17.47c0,0,.77-6.54.85-8a32.17,32.17,0,0,1,.54-4.83c.54-3.72,1.51-5,1.51-5"/><path class="cls-1" d="M222.38,76.64c.82,2.2,2.47,3.38,2.14,6.31s.25,5.43,0,6.9.47,8.66.05,9.1.14,7.92.14,7.92v7.63l.37,2.34"/></g></g></svg>