<svg xmlns="http://www.w3.org/2000/svg" viewBox="0 0 248.83 311.29"><defs><style>.cls-1{fill:none;stroke:#1d1d1b;stroke-miterlimit:10;}</style></defs><title>Asset 17</title><g id="Layer_2" data-name="Layer 2"><g id="Layer_1-2" data-name="Layer 1"><path class="cls-1" d="M65.2,71.7v3.17s.15,4.87,0,10.21S66,97.56,66,98.63a39,39,0,0,1-.61,8.68c-.76,3-3.67,6.09-5.2,9.75s-8.1,21-10.7,27.87-2.91,16.6-3.21,23a104.48,104.48,0,0,1-2.91,19.65c-1.38,5-7.49,19.65-9,23.45s-11.63,32.44-12.54,36.18.46,2.81,1.07,4.34,4.58,5.78,5,6.24,1.38,4.72,1.38,4.72,1.07,12.64,1.22,13.56a54.22,54.22,0,0,0,1.84,5.79,19.59,19.59,0,0,1,1.22,6.85c0,2.13-.61,2-.92,2.74s-3.82.46-4.74.15-2.75-2.89-3.36-4.57a18.45,18.45,0,0,1-.46-5.33,56.17,56.17,0,0,0-2.14-7.46c-.77-1.83-2-2.44-4.89-2.44s-1.23.46-2.76,2-1.22,2.9-3.36,7.92-.15,5.49.92,9,2.44,3.35,3.67,5.94,3.36,3.35,4.89,4.72,2.91,1.52,3.82,3,.16,2.89-.3,4.41-.92.61-2.45.46-5.81-4-5.81-4l-2.91-2a62.93,62.93,0,0,1-5.65-5.18c-2.6-2.74-3.06-4.26-3.22-5.33a12.49,12.49,0,0,1-.3-4c.15-2.28-.31-2.28-.31-3.35s-.76-2.28-1.68-4.11-.92-5-1.07-5.79,1.68-7.16,1.68-7.16L6.63,252v-5.48s1.53-12.18,2-17.51,1.69-31.38,1.69-31.38,2.14-14,2.29-14.47S14.87,176,14.87,176s.17-5.48,0-7.77,1.23-10.35,1.23-11.75,5.66-16.42,5.66-16.42,9.78-35.49,10.7-37,5-14.74,5-14.74.68-4.39.86-7.5,3.12-13,3.12-13c.18-1.63,5.17-13.1,6.08-14.18s9.65-8.35,11.11-9.07,32-13.89,32-13.89l9-5.88,2.92-2.73.54-6.34-.18-3.27s-.55-2.72-.73-3.45-1.64-4.53-1.64-4.53l2.37,2.36a18.63,18.63,0,0,1,2.91,2.54c1.1,1.27,4.37,2.72,4.37,2.72l6.74,2,6.56.37s5.65-.37,6.19-.37,6.92-3.08,6.92-3.08,4.74-2,6.93-4,4.91-4.9,4.91-4.9l-1.09,2.9V18.67c0,1.09,2.37,4.53,6.37,7.62s10,6.16,11.84,7.43,10.57,4.54,12.75,6,7.83,3.26,9.49,4.17,5.45,2,7.63,3.45a77.53,77.53,0,0,1,7.11,4.9c1.64,1.45,5.28,8.34,5.28,8.34s2,5.44,2.18,6a88,88,0,0,1,2.37,10.16,72.31,72.31,0,0,1,.37,9.8s4.55,11.24,6.37,14.33,6.37,22.31,8.38,30.11,3.64,16.69,4.73,19.23,2.74,11.79,2.74,15.41,1.27,12.52,1.27,14.88,2,6,2.55,10.16,2,28,2.1,30.15,1.67,17.51,1.67,17.51l.79,14.23s1.48,10.3,2.46,13.43a102.38,102.38,0,0,1,2.56,13.34c.2,2.16-3.64,15.8-3.64,15.8l-6.4,7.85-4.73,4.9s-3.84,2-4.53,2.26a16.86,16.86,0,0,1-1.77.68c-.4.1-1.48-.59-1.88-.88a3.85,3.85,0,0,1-.69-2.26,3.24,3.24,0,0,1,.5-1.86l3.15-2.75s3-3.14,3.15-3.43,4.24-4,5.22-5,.89-3.93.89-3.93l-2.37-7.75s-.78-2-1-2.55a19.69,19.69,0,0,1-1-2.94,6,6,0,0,0-1.47-2.55,11,11,0,0,0-2.27-.88,6,6,0,0,0-2,.68,14.62,14.62,0,0,0-1.48,2.36c-.19.39-1,3.14-1,3.14s-.2,3.23-.2,3.73-.29,4.31-.29,4.31l-2.17,2.55s-1.28,1.28-1.68,1.57-1.28.88-2.06,1.47-2.07-.59-2.37-.78a13.35,13.35,0,0,1-1.28-1.77l-.2-3.33.2-3,.79-2.65.69-2.75,1.38-2.75v-2.35c0-.88,1.28-6.57,1.28-6.57l1.48-4.22,1.08-4.81,3.61-4.56,1-3.35s.21-4.8,0-8.78a31.34,31.34,0,0,0-2.1-8.57l-5.46-14.63L213,205.1l-5.25-15.89-2.3-12.13s-1.05-10.25-1.47-12.76,0-11.29,0-11.29-4-14-4.62-16.3-6.09-15.48-6.09-15.48l-5.46-12.54-2.73-5"/><path class="cls-1" d="M65.72,105.23l1.12,5.43s2.64,16,3.25,21.17,1.38,6.1,1.68,12.34.62,8.62.77,12.31.92,5.36,0,9.77-1.38,5.49-2,9.3a65.63,65.63,0,0,1-2.24,8.64c-.21,1-1.47,7.11-1.47,7.11v11.91a140.42,140.42,0,0,0,12,8.37c4.41,2.51,14.07,5.43,18.06,7.11s20.78,2.09,20.78,2.09H137.8s8.81-1.05,12.38-2.3,2.31,0,9.24-3.14,14.48-6.69,15.11-7.11,7.77-4.39,7.77-4.39.42-8.36,0-11.29-4.41-13-4.62-16.1-1.05-22.79-1.05-22.79-.42-6.27-.42-6.9-.42-1.67,1.47-7.53,5-17.77,4.81-18.6S185,108.71,185,108.71v-37"/></g></g></svg>