<svg xmlns="http://www.w3.org/2000/svg" viewBox="0 0 213.08 344.1"><defs><style>.cls-1{fill:none;stroke:#1d1d1b;stroke-miterlimit:10;}</style></defs><title>Asset 18</title><g id="Layer_2" data-name="Layer 2"><g id="Layer_1-2" data-name="Layer 1"><path class="cls-1" d="M52,112.3,54.54,127l1.71,13.22L58,157.15s1.28,7.59,1.92,12,2.36,11.51,2.36,15.43v7.83l-1.29,11-.64,9.06-.43,5.39a102.76,102.76,0,0,0,16.47,2.69c7.91.49,33.22,1,33.22,1s22.16,1,25.15,0,18.82-4.16,18.82-4.16-2.78-13.23-3.21-17.39a113.79,113.79,0,0,1-.43-14.93A171.91,171.91,0,0,1,152,167.14c.86-4.6,4.71-23,4.71-25.9s1.49-12.49,1.71-16.41c.06-1.08.21-2.81.41-4.74.52-5,1.3-11.42,1.3-11.42s.85-20.32.85-21.3a35.8,35.8,0,0,1,2.14-6.86"/><path class="cls-1" d="M158.87,120.09l4.29,16s3.21,9.55,3.42,13-.64,6.37,0,8.33,0,17,0,17l1.46,17.27s2.57,10.77,3.85,15.18,7.91,21,8.77,24.73,3.2,8.08,5.77,18.85,5.34,13.47,5.77,18.85,1.93,5.64,0,11.27-2.56,6.36-3.42,9.79.21,5.39.86,9.8,2.13,6.85,2.13,10.77-.42,7.34-.42,10.53-.43,7.1.85,7.83,4.28,2,5.35,0,3.42-3.67,3.42-5.87l-1.28-7.1s.64-4.66.42-5.39.86-6.61.86-6.61l1.07,7.59v12.78s-1.73,4.81-1.92,5.14a42.74,42.74,0,0,1-3.72,3.28c-.48.33-6.21,2.62-6.21,2.62l-6.3,3a1.86,1.86,0,0,0-.57,1.86c.38,1,1.52,3.06,2.77,3.06s10-1.21,10-1.21l5.93-3.17,7.06-8.74s3.34-13.67,3.44-14.33-1.05-16.07-1.05-16.07-4.21-20.56-4.59-22.64S204.08,257,204.08,257s-4.56-56.13-4.77-57.36-1.5-12-1.5-12-4.72-19.14-5.57-22.57-9.22-55-9.43-55.94-.43-17.42-.43-19.13.43-13.25.21-17.67-1.28-10.06-2.14-11-3-4.66-5.14-6.13-12.15-4.66-12.15-4.66-11.63-2.95-14.85-4.91-1.07-2.21-7.28-5.4S132.46,35,129.25,34a9.41,9.41,0,0,1-4.93-4.17v-28S120,7.53,119.39,8.27s-2.14,3.19-4.07,4.17a55.62,55.62,0,0,1-7.74,2.7c-1,.24-7.26-1-7.26-1S94.75,12,94.54,11s-3.22-4.4-3.22-4.4L87.66,1.72l.49,4.93-.26,22.93s-11.33,8.57-13.25,10-11.12,5.63-11.12,5.63a136.3,136.3,0,0,1-13.26,4.17c-5.34,1.22-10.48,3.42-11.76,4.65s-6.63,6.86-7.27,8.57-2.56,7.59-2.35,9.55-.46,1.47,0,12.24,1.73,24.24-.41,32.32-4.7,23.51-4.7,23.51L21.82,159.6s-5.34,17.87-5.77,20.08-1.71,17.87-1.71,17.87L9.21,237.33s-1.5,23.88-2.14,28S5.79,282,4.5,286.43A157.74,157.74,0,0,0,.65,303.82c-.42,3.67.43,7.59,0,9.79s0,7.84,1.71,10.53,6.42,11,7.06,11.75,7.7,6.37,7.7,6.37H29.73l1.07-2.94-1.71-3.43-8.76-.49s-6.42-2.36-7.27-4.48a24.12,24.12,0,0,1-1.71-4.82c0-.73.21-7.35.21-7.35l.64-14.2.86,18.61a10.26,10.26,0,0,0,1.49,4.18c1.29,1.94,1.29,2.52,3,3.58s4.06,0,4.06,0,1.92-3.35,1.71-4.82-1.92-2.69-2.14-6.37-1.07-8.08-1.07-9.79,2.57-13,2.14-17.14-.21-6.61-1.07-7.35-2.78-1.95-3-2.69-1.5.63-.64-3.6a52.94,52.94,0,0,1,3.85-13.29C24,260,31,238.42,31,237.33s6-17.74,8.55-26.31,4.06-22.28,4.06-22.28l1.21-38.44L50.05,130l1.71-13.22L52,112.3l.6-11s-.42-9.31-.64-10S47.27,80,47.27,80"/></g></g></svg>